<svg width="149" height="22" viewBox="0 0 149 22" fill="none" xmlns="http://www.w3.org/2000/svg">
<path d="M45.0068 0H27.8106L24.4006 3.40718V18.5838L27.8106 21.991H45.016L48.4259 18.5838V3.40718L45.0068 0ZM28.5897 18.5838V3.40718H44.2277V18.5746H28.5897V18.5838Z" fill="#111111"/>
<path d="M120.409 0V18.5838H107.925V0H103.727V18.5838L107.136 21.991H121.189L124.599 18.5838V0" fill="#111111"/>
<path d="M71.7727 0L63.8987 12.722L56.0338 0H51.8356V21.991H56.0338V11.2107L55.9055 6.94259L61.5704 16.1108H66.2361L71.901 6.94259L71.7727 11.2107V21.991H75.9709V0H71.7727Z" fill="#111111"/>
<path d="M100.318 3.40718L96.9078 0H79.3816V21.991H96.9078L100.318 18.5838V13.0883L98.2186 10.9909L100.318 8.89348V3.40718ZM96.1287 3.40718V9.28732H83.5798V3.40718H96.1287V3.40718ZM83.5798 18.5838V12.7037H96.1287V18.5838H83.5798Z" fill="#111111"/>
<path d="M149 14.92L146.672 12.5935L148.954 10.3129V3.4161L145.544 0.00891113H128.018V22H132.216V13.9766H143.225L144.802 15.5519V21.9908H149V14.92ZM132.216 3.40694H144.765V10.5602H132.216V3.40694Z" fill="#111111"/>
<path d="M17.5721 0H0V21.991H17.5629L20.9728 18.5838V3.40718L17.5721 0ZM16.7929 18.5838H4.19823V3.40718H16.7929V18.5838V18.5838Z" fill="#111111"/>
</svg>
