<?xml version="1.0" encoding="UTF-8"?><svg id="a" xmlns="http://www.w3.org/2000/svg" viewBox="0 0 1018.4 240.2"><defs><style>.b{fill:#fff;}</style></defs><polygon class="b" points="469.3 0 383.4 138.9 297.6 0 251.8 0 251.8 240.1 297.6 240.1 297.6 122.4 296.2 75.8 358 175.9 408.9 175.9 470.7 75.8 469.3 122.4 469.3 240.1 515.1 240.1 515.1 0 469.3 0"/><path class="b" d="M766.5,37.2L729.3,0h-191.2V240.1h191.2l37.2-37.2v-60l-22.9-22.9,22.9-22.9V37.2Zm-45.7,0V101.4h-136.9V37.2h136.9Zm-136.9,165.7v-64.2h136.9v64.2h-136.9Z"/><path class="b" d="M1018.4,162.9l-25.4-25.4,24.9-24.9V37.3L980.7,.1h-191.2V240.2h45.8v-87.6h120.1l17.2,17.2v70.3h45.8v-77.2h0Zm-183.1-125.7h136.9V115.3h-136.9V37.2Z"/><path class="b" d="M191.7,0H0V240.1H191.6l37.2-37.2V37.2L191.7,0Zm-8.5,202.9H45.8V37.2H183.2V202.9Z"/></svg>