<?xml version="1.0" encoding="utf-8"?>
<!-- Generator: Adobe Illustrator 26.1.0, SVG Export Plug-In . SVG Version: 6.00 Build 0)  -->
<svg version="1.1" id="Layer_1" xmlns="http://www.w3.org/2000/svg" xmlns:xlink="http://www.w3.org/1999/xlink" x="0px" y="0px"
	 viewBox="0 0 1018.4 240.2" style="enable-background:new 0 0 1018.4 240.2;" xml:space="preserve">
<g>
	<polygon points="469.3,0 383.4,138.9 297.6,0 251.8,0 251.8,240.1 297.6,240.1 297.6,122.4 296.2,75.8 358,175.9 408.9,175.9 
		470.7,75.8 469.3,122.4 469.3,240.1 515.1,240.1 515.1,0 	"/>
	<path d="M766.5,37.2L729.3,0H538.1v240.1h191.2l37.2-37.2v-60L743.6,120l22.9-22.9V37.2z M720.8,37.2v64.2H583.9V37.2L720.8,37.2
		L720.8,37.2z M583.9,202.9v-64.2h136.9v64.2H583.9z"/>
	<path d="M1018.4,162.9L993,137.5l24.9-24.9V37.3L980.7,0.1H789.5v240.1h45.8v-87.6h120.1l17.2,17.2v70.3h45.8V162.9L1018.4,162.9z
		 M835.3,37.2h136.9v78.1H835.3V37.2z"/>
	<path d="M191.7,0H0v240.1h191.6l37.2-37.2V37.2L191.7,0z M183.2,202.9H45.8V37.2h137.4V202.9z"/>
</g>
</svg>
